<?xml version="1.0" standalone="no"?>
<!DOCTYPE svg PUBLIC "-//W3C//DTD SVG 20010904//EN"
 "http://www.w3.org/TR/2001/REC-SVG-20010904/DTD/svg10.dtd">
<svg version="1.0" xmlns="http://www.w3.org/2000/svg"
 width="300.000000pt" height="300.000000pt" viewBox="0 0 300.000000 300.000000"
 preserveAspectRatio="xMidYMid meet">
<metadata>
Created by potrace 1.11, written by Peter Selinger 2001-2013
</metadata>
<g transform="translate(0.000000,300.000000) scale(0.100000,-0.100000)"
fill="#000000" stroke="none">
<path d="M0 1500 l0 -1500 1500 0 1500 0 0 1500 0 1500 -1500 0 -1500 0 0
-1500z m354 493 c2 -10 19 -94 37 -188 17 -93 35 -173 39 -178 3 -4 17 41 29
100 13 60 32 147 43 196 l20 87 109 0 109 0 2 -432 3 -433 32 195 c17 107 49
302 70 433 l37 237 113 0 112 0 6 -32 c3 -18 32 -208 65 -423 33 -214 62 -394
64 -400 3 -5 5 185 5 423 l1 432 153 0 c142 0 155 -2 191 -23 21 -13 52 -44
68 -68 l30 -44 -7 68 -7 67 90 0 90 0 6 -37 c32 -203 68 -422 73 -438 4 -11
25 86 49 225 24 135 43 246 43 248 1 1 115 1 254 0 l252 -3 0 -90 0 -90 -77
-3 -78 -3 0 -99 0 -99 73 -3 72 -3 3 -102 3 -103 -71 0 -70 0 0 -95 0 -94 73
-3 72 -3 3 -97 3 -98 -166 0 -165 0 0 457 c0 251 -2 454 -5 451 -5 -5 -35
-168 -109 -598 -26 -146 -49 -275 -51 -288 -5 -22 -8 -23 -108 -20 l-101 3
-47 287 c-26 158 -49 295 -51 305 -2 10 -12 -8 -22 -42 -23 -75 -41 -113 -74
-148 l-26 -28 58 -177 c32 -97 61 -183 63 -189 4 -10 -17 -13 -84 -13 l-89 0
-54 150 c-30 82 -58 150 -62 150 -5 0 -8 -67 -8 -150 l0 -150 -179 0 -179 0
-6 45 -7 45 -68 0 -68 0 -13 -45 -13 -45 -168 0 -169 0 0 153 c0 85 -3 157 -7
161 -4 3 -22 -55 -40 -131 -18 -76 -35 -148 -38 -160 -5 -20 -12 -23 -53 -23
l-47 0 -35 158 -35 157 -5 -155 -5 -155 -92 -3 -93 -3 0 496 0 495 114 0 c101
0 115 -2 120 -17z m2416 -383 l0 -400 70 0 70 0 0 -100 0 -100 -155 0 -155 0
0 500 0 500 85 0 85 0 0 -400z"/>
<path d="M1440 1685 c0 -139 1 -145 20 -145 30 0 66 41 81 89 23 78 -27 201
-83 201 -17 0 -18 -12 -18 -145z"/>
<path d="M977 1463 c-24 -168 -25 -163 22 -163 22 0 42 3 44 8 6 9 -33 255
-43 265 -4 4 -14 -45 -23 -110z"/>
</g>
</svg>
